{
    "asset" : {
        "generator" : "Khronos glTF Blender I/O v1.6.16",
        "version" : "2.0"
    },
    "scene" : 0,
    "scenes" : [
        {
            "name" : "Scene",
            "nodes" : [
                0,
                1,
                2
            ]
        }
    ],
    "nodes" : [
        {
            "name" : "Light",
            "rotation" : [
                0.16907575726509094,
                0.7558803558349609,
                -0.27217137813568115,
                0.570947527885437
            ],
            "translation" : [
                4.076245307922363,
                5.903861999511719,
                -1.0054539442062378
            ]
        },
        {
            "name" : "Camera",
            "rotation" : [
                0.483536034822464,
                0.33687159419059753,
                -0.20870360732078552,
                0.7804827094078064
            ],
            "translation" : [
                7.358891487121582,
                4.958309173583984,
                6.925790786743164
            ]
        },
        {
            "mesh" : 0,
            "name" : "12265_Fish_v1_L2",
            "rotation" : [
                0.001421990105882287,
                0.7071053385734558,
                -0.0014219899894669652,
                0.7071053981781006
            ]
        }
    ],
    "materials" : [
        {
            "doubleSided" : true,
            "name" : "01___12265_Fish",
            "pbrMetallicRoughness" : {
                "baseColorTexture" : {
                    "index" : 0
                },
                "metallicFactor" : 0,
                "roughnessFactor" : 0.850928783416748
            }
        }
    ],
    "meshes" : [
        {
            "name" : "12265_Fish_v1_L2",
            "primitives" : [
                {
                    "attributes" : {
                        "POSITION" : 0,
                        "NORMAL" : 1,
                        "TEXCOORD_0" : 2
                    },
                    "indices" : 3,
                    "material" : 0
                }
            ]
        }
    ],
    "textures" : [
        {
            "sampler" : 0,
            "source" : 0
        }
    ],
    "images" : [
        {
            "bufferView" : 4,
            "mimeType" : "image/jpeg",
            "name" : "fish"
        }
    ],
    "accessors" : [
        {
            "bufferView" : 0,
            "componentType" : 5126,
            "count" : 13199,
            "max" : [
                15.291799545288086,
                10.509200096130371,
                4.846799850463867
            ],
            "min" : [
                -13.412799835205078,
                -8.161600112915039,
                -4.846799850463867
            ],
            "type" : "VEC3"
        },
        {
            "bufferView" : 1,
            "componentType" : 5126,
            "count" : 13199,
            "type" : "VEC3"
        },
        {
            "bufferView" : 2,
            "componentType" : 5126,
            "count" : 13199,
            "type" : "VEC2"
        },
        {
            "bufferView" : 3,
            "componentType" : 5123,
            "count" : 73728,
            "type" : "SCALAR"
        }
    ],
    "bufferViews" : [
        {
            "buffer" : 0,
            "byteLength" : 158388,
            "byteOffset" : 0
        },
        {
            "buffer" : 0,
            "byteLength" : 158388,
            "byteOffset" : 158388
        },
        {
            "buffer" : 0,
            "byteLength" : 105592,
            "byteOffset" : 316776
        },
        {
            "buffer" : 0,
            "byteLength" : 147456,
            "byteOffset" : 422368
        },
        {
            "buffer" : 0,
            "byteLength" : 178952,
            "byteOffset" : 569824
        }
    ],
    "samplers" : [
        {
            "magFilter" : 9729,
            "minFilter" : 9987
        }
    ],
    "buffers" : [
        {
            "byteLength" : 748776,
            "uri" : "data:application/octet-stream;base64,"
        }
    ]
}
