{
    "asset" : {
        "generator" : "Khronos glTF Blender I/O v1.6.16",
        "version" : "2.0"
    },
    "scene" : 0,
    "scenes" : [
        {
            "name" : "Scene",
            "nodes" : [
                0,
                1,
                2
            ]
        }
    ],
    "nodes" : [
        {
            "name" : "Light",
            "rotation" : [
                0.16907575726509094,
                0.7558803558349609,
                -0.27217137813568115,
                0.570947527885437
            ],
            "translation" : [
                4.076245307922363,
                5.903861999511719,
                -1.0054539442062378
            ]
        },
        {
            "name" : "Camera",
            "rotation" : [
                0.483536034822464,
                0.33687159419059753,
                -0.20870360732078552,
                0.7804827094078064
            ],
            "translation" : [
                7.358891487121582,
                4.958309173583984,
                6.925790786743164
            ]
        },
        {
            "mesh" : 0,
            "name" : "13009_Coral_Beauty_Angelfish_v1_l3",
            "rotation" : [
                -0.04361932724714279,
                0,
                0,
                0.9990482330322266
            ]
        }
    ],
    "materials" : [
        {
            "doubleSided" : true,
            "name" : "13009_Coral_Beauty_Angelfish_v1",
            "pbrMetallicRoughness" : {
                "baseColorTexture" : {
                    "index" : 0
                },
                "metallicFactor" : 0,
                "roughnessFactor" : 0.8174257874488831
            }
        }
    ],
    "meshes" : [
        {
            "name" : "13009_Coral_Beauty_Angelfish_v1_l3",
            "primitives" : [
                {
                    "attributes" : {
                        "POSITION" : 0,
                        "NORMAL" : 1,
                        "TEXCOORD_0" : 2
                    },
                    "indices" : 3,
                    "material" : 0
                }
            ]
        }
    ],
    "textures" : [
        {
            "sampler" : 0,
            "source" : 0
        }
    ],
    "images" : [
        {
            "bufferView" : 4,
            "mimeType" : "image/jpeg",
            "name" : "13009_Coral_Beauty_Angelfish_v1_diff"
        }
    ],
    "accessors" : [
        {
            "bufferView" : 0,
            "componentType" : 5126,
            "count" : 17892,
            "max" : [
                0.18449999392032623,
                0.5917999744415283,
                0.5335000157356262
            ],
            "min" : [
                -0.18449999392032623,
                0.011699999682605267,
                -0.66839998960495
            ],
            "type" : "VEC3"
        },
        {
            "bufferView" : 1,
            "componentType" : 5126,
            "count" : 17892,
            "type" : "VEC3"
        },
        {
            "bufferView" : 2,
            "componentType" : 5126,
            "count" : 17892,
            "type" : "VEC2"
        },
        {
            "bufferView" : 3,
            "componentType" : 5123,
            "count" : 103680,
            "type" : "SCALAR"
        }
    ],
    "bufferViews" : [
        {
            "buffer" : 0,
            "byteLength" : 214704,
            "byteOffset" : 0
        },
        {
            "buffer" : 0,
            "byteLength" : 214704,
            "byteOffset" : 214704
        },
        {
            "buffer" : 0,
            "byteLength" : 143136,
            "byteOffset" : 429408
        },
        {
            "buffer" : 0,
            "byteLength" : 207360,
            "byteOffset" : 572544
        },
        {
            "buffer" : 0,
            "byteLength" : 659099,
            "byteOffset" : 779904
        }
    ],
    "samplers" : [
        {
            "magFilter" : 9729,
            "minFilter" : 9987
        }
    ],
    "buffers" : [
        {
            "byteLength" : 1439004,
            "uri" : "data:application/octet-stream;base64,"
        }
    ]
}
