{
    "asset" : {
        "generator" : "Khronos glTF Blender I/O v1.6.16",
        "version" : "2.0"
    },
    "scene" : 0,
    "scenes" : [
        {
            "name" : "Scene",
            "nodes" : [
                0,
                1,
                2
            ]
        }
    ],
    "nodes" : [
        {
            "name" : "Light",
            "rotation" : [
                0.16907575726509094,
                0.7558803558349609,
                -0.27217137813568115,
                0.570947527885437
            ],
            "translation" : [
                4.076245307922363,
                5.903861999511719,
                -1.0054539442062378
            ]
        },
        {
            "name" : "Camera",
            "rotation" : [
                0.483536034822464,
                0.33687159419059753,
                -0.20870360732078552,
                0.7804827094078064
            ],
            "translation" : [
                7.358891487121582,
                4.958309173583984,
                6.925790786743164
            ]
        },
        {
            "mesh" : 0,
            "name" : "13007_Blue-Green_Reef_Chromis_v2_l3",
            "rotation" : [
                -0.04832834377884865,
                -0.00404776306822896,
                -0.0054030404426157475,
                0.9988086819648743
            ],
            "scale" : [
                6,
                6,
                6
            ],
            "translation" : [
                0,
                -5.406898498535156,
                -3.019436836242676
            ]
        }
    ],
    "materials" : [
        {
            "doubleSided" : true,
            "name" : "13007_Blue_Green_Reef_Chromis_v1",
            "normalTexture" : {
                "index" : 0
            },
            "pbrMetallicRoughness" : {
                "baseColorTexture" : {
                    "index" : 1
                },
                "metallicFactor" : 0,
                "roughnessFactor" : 0.7527933716773987
            }
        }
    ],
    "meshes" : [
        {
            "name" : "13007_Blue-Green_Reef_Chromis_v2_l3",
            "primitives" : [
                {
                    "attributes" : {
                        "POSITION" : 0,
                        "NORMAL" : 1,
                        "TEXCOORD_0" : 2
                    },
                    "indices" : 3,
                    "material" : 0
                }
            ]
        }
    ],
    "textures" : [
        {
            "sampler" : 0,
            "source" : 0
        },
        {
            "sampler" : 0,
            "source" : 1
        }
    ],
    "images" : [
        {
            "bufferView" : 4,
            "mimeType" : "image/jpeg",
            "name" : "13004_Bicolor_Blenny_v1_bump"
        },
        {
            "bufferView" : 5,
            "mimeType" : "image/jpeg",
            "name" : "13004_Bicolor_Blenny_v1_diff"
        }
    ],
    "accessors" : [
        {
            "bufferView" : 0,
            "componentType" : 5126,
            "count" : 20414,
            "max" : [
                0.626800000667572,
                3.379300117492676,
                4.031599998474121
            ],
            "min" : [
                -0.6237000226974487,
                0.11760000139474869,
                -3.6568000316619873
            ],
            "type" : "VEC3"
        },
        {
            "bufferView" : 1,
            "componentType" : 5126,
            "count" : 20414,
            "type" : "VEC3"
        },
        {
            "bufferView" : 2,
            "componentType" : 5126,
            "count" : 20414,
            "type" : "VEC2"
        },
        {
            "bufferView" : 3,
            "componentType" : 5123,
            "count" : 117504,
            "type" : "SCALAR"
        }
    ],
    "bufferViews" : [
        {
            "buffer" : 0,
            "byteLength" : 244968,
            "byteOffset" : 0
        },
        {
            "buffer" : 0,
            "byteLength" : 244968,
            "byteOffset" : 244968
        },
        {
            "buffer" : 0,
            "byteLength" : 163312,
            "byteOffset" : 489936
        },
        {
            "buffer" : 0,
            "byteLength" : 235008,
            "byteOffset" : 653248
        },
        {
            "buffer" : 0,
            "byteLength" : 376228,
            "byteOffset" : 888256
        },
        {
            "buffer" : 0,
            "byteLength" : 463827,
            "byteOffset" : 1264484
        }
    ],
    "samplers" : [
        {
            "magFilter" : 9729,
            "minFilter" : 9987
        }
    ],
    "buffers" : [
        {
            "byteLength" : 1728312,
            "uri" : "data:application/octet-stream;base64,"
        }
    ]
}
