{
    "asset" : {
        "generator" : "Khronos glTF Blender I/O v1.6.16",
        "version" : "2.0"
    },
    "scene" : 0,
    "scenes" : [
        {
            "name" : "Scene",
            "nodes" : [
                0,
                1,
                10
            ]
        }
    ],
    "nodes" : [
        {
            "name" : "Light",
            "rotation" : [
                0.16907575726509094,
                0.7558803558349609,
                -0.27217137813568115,
                0.570947527885437
            ],
            "translation" : [
                4.076245307922363,
                5.903861999511719,
                -1.0054539442062378
            ]
        },
        {
            "name" : "Camera",
            "rotation" : [
                0.483536034822464,
                0.33687159419059753,
                -0.20870360732078552,
                0.7804827094078064
            ],
            "translation" : [
                7.358891487121582,
                4.958309173583984,
                6.925790786743164
            ]
        },
        {
            "mesh" : 0,
            "name" : "node_id227",
            "rotation" : [
                0,
                0,
                -0.012209014035761356,
                0.9999254941940308
            ],
            "scale" : [
                2.3815014362335205,
                2.3815014362335205,
                2.3918230533599854
            ],
            "translation" : [
                0,
                255.99998474121094,
                -16.81768226623535
            ]
        },
        {
            "mesh" : 1,
            "name" : "node_id229",
            "rotation" : [
                0,
                0,
                -0.012208999134600163,
                0.9999254941940308
            ],
            "scale" : [
                235.57496643066406,
                79.24415588378906,
                217.6361541748047
            ],
            "translation" : [
                -56.2276611328125,
                456.982666015625,
                147.18191528320312
            ]
        },
        {
            "mesh" : 2,
            "name" : "node_id231",
            "rotation" : [
                0.1493862122297287,
                0,
                0,
                0.9887789487838745
            ],
            "scale" : [
                138.69778442382812,
                79.2441635131836,
                26.925048828125
            ],
            "translation" : [
                7.6014251708984375,
                483.5457763671875,
                53.157588958740234
            ]
        },
        {
            "mesh" : 3,
            "name" : "node_id233",
            "rotation" : [
                -0.13239428400993347,
                -0.008723990991711617,
                0.06517002731561661,
                0.9890139102935791
            ],
            "scale" : [
                48.49386215209961,
                79.24419403076172,
                72.42420959472656
            ],
            "translation" : [
                -66.22943115234375,
                469.5833435058594,
                -93.56635284423828
            ]
        },
        {
            "mesh" : 4,
            "name" : "node_id235",
            "rotation" : [
                -0.13265147805213928,
                -0.0028167953714728355,
                -0.12804943323135376,
                0.982852578163147
            ],
            "scale" : [
                50.25447082519531,
                79.24415588378906,
                74.20570373535156
            ],
            "translation" : [
                77.653076171875,
                468.6830749511719,
                -77.1061019897461
            ]
        },
        {
            "mesh" : 5,
            "name" : "node_id237",
            "rotation" : [
                -0.0028380248695611954,
                0.017343420535326004,
                0.1614643782377243,
                0.9867220520973206
            ],
            "scale" : [
                115.2816162109375,
                79.24420166015625,
                39.43993377685547
            ],
            "translation" : [
                -66.59554290771484,
                440.55743408203125,
                -151.400146484375
            ]
        },
        {
            "mesh" : 6,
            "name" : "node_id239",
            "rotation" : [
                -0.13023774325847626,
                -0.025347590446472168,
                -0.06005193293094635,
                0.9893378615379333
            ],
            "scale" : [
                110.43412780761719,
                79.24415588378906,
                24.002885818481445
            ],
            "translation" : [
                93.86871337890625,
                452.7989196777344,
                -128.61618041992188
            ]
        },
        {
            "children" : [
                2,
                3,
                4,
                5,
                6,
                7,
                8
            ],
            "name" : "node_id241",
            "scale" : [
                0.00027450144989416003,
                0.00027450144989416003,
                0.00027450144989416003
            ],
            "translation" : [
                -0.11663217097520828,
                0.18542258441448212,
                -0.021897293627262115
            ]
        },
        {
            "children" : [
                9
            ],
            "name" : "root",
            "rotation" : [
                0.5320677757263184,
                0,
                0,
                0.8467017412185669
            ],
            "scale" : [
                0.009999999776482582,
                0.009999999776482582,
                0.009999999776482582
            ],
            "translation" : [
                0.0011479470413178205,
                -5.12499718752224e-05,
                -0.002535842591896653
            ]
        }
    ],
    "materials" : [
        {
            "doubleSided" : true,
            "name" : "Material_419",
            "pbrMetallicRoughness" : {
                "baseColorFactor" : [
                    1,
                    0.7803921699523926,
                    0.16862745583057404,
                    1
                ],
                "roughnessFactor" : 0.80232834815979
            }
        },
        {
            "alphaMode" : "BLEND",
            "doubleSided" : true,
            "name" : "Material_421",
            "pbrMetallicRoughness" : {
                "baseColorTexture" : {
                    "index" : 0
                },
                "roughnessFactor" : 0
            }
        },
        {
            "doubleSided" : true,
            "name" : "Material_423",
            "pbrMetallicRoughness" : {
                "baseColorFactor" : [
                    0.2823529541492462,
                    0.13333334028720856,
                    0.08235294371843338,
                    1
                ],
                "roughnessFactor" : 0.80232834815979
            }
        },
        {
            "doubleSided" : true,
            "name" : "Material_425",
            "pbrMetallicRoughness" : {
                "baseColorFactor" : [
                    0.6431372761726379,
                    0.4313725531101227,
                    0.16862745583057404,
                    1
                ],
                "roughnessFactor" : 0.80232834815979
            }
        },
        {
            "doubleSided" : true,
            "name" : "Material_427",
            "pbrMetallicRoughness" : {
                "baseColorFactor" : [
                    0.6431372761726379,
                    0.4313725531101227,
                    0.16862745583057404,
                    1
                ],
                "roughnessFactor" : 0.80232834815979
            }
        },
        {
            "doubleSided" : true,
            "name" : "Material_429",
            "pbrMetallicRoughness" : {
                "baseColorFactor" : [
                    0.48627451062202454,
                    0.29019609093666077,
                    0.10980392247438431,
                    1
                ],
                "roughnessFactor" : 0.80232834815979
            }
        },
        {
            "doubleSided" : true,
            "name" : "Material_431",
            "pbrMetallicRoughness" : {
                "baseColorFactor" : [
                    0.48627451062202454,
                    0.29019609093666077,
                    0.10980392247438431,
                    1
                ],
                "roughnessFactor" : 0.80232834815979
            }
        }
    ],
    "meshes" : [
        {
            "name" : "mesh_id228",
            "primitives" : [
                {
                    "attributes" : {
                        "POSITION" : 0,
                        "NORMAL" : 1
                    },
                    "indices" : 2,
                    "material" : 0
                }
            ]
        },
        {
            "name" : "mesh_id230",
            "primitives" : [
                {
                    "attributes" : {
                        "POSITION" : 3,
                        "NORMAL" : 4,
                        "TEXCOORD_0" : 5,
                        "COLOR_0" : 6
                    },
                    "indices" : 7,
                    "material" : 1
                }
            ]
        },
        {
            "name" : "mesh_id232",
            "primitives" : [
                {
                    "attributes" : {
                        "POSITION" : 8,
                        "NORMAL" : 9
                    },
                    "indices" : 10,
                    "material" : 2
                }
            ]
        },
        {
            "name" : "mesh_id234",
            "primitives" : [
                {
                    "attributes" : {
                        "POSITION" : 11,
                        "NORMAL" : 12
                    },
                    "indices" : 13,
                    "material" : 3
                }
            ]
        },
        {
            "name" : "mesh_id236",
            "primitives" : [
                {
                    "attributes" : {
                        "POSITION" : 14,
                        "NORMAL" : 15
                    },
                    "indices" : 16,
                    "material" : 4
                }
            ]
        },
        {
            "name" : "mesh_id238",
            "primitives" : [
                {
                    "attributes" : {
                        "POSITION" : 17,
                        "NORMAL" : 18
                    },
                    "indices" : 19,
                    "material" : 5
                }
            ]
        },
        {
            "name" : "mesh_id240",
            "primitives" : [
                {
                    "attributes" : {
                        "POSITION" : 20,
                        "NORMAL" : 21
                    },
                    "indices" : 22,
                    "material" : 6
                }
            ]
        }
    ],
    "textures" : [
        {
            "sampler" : 0,
            "source" : 0
        }
    ],
    "images" : [
        {
            "bufferView" : 8,
            "mimeType" : "image/png",
            "name" : "2845"
        }
    ],
    "accessors" : [
        {
            "bufferView" : 0,
            "componentType" : 5126,
            "count" : 1538,
            "max" : [
                100,
                100,
                100
            ],
            "min" : [
                -100,
                -100,
                -100
            ],
            "type" : "VEC3"
        },
        {
            "bufferView" : 1,
            "componentType" : 5126,
            "count" : 1538,
            "type" : "VEC3"
        },
        {
            "bufferView" : 2,
            "componentType" : 5123,
            "count" : 9216,
            "type" : "SCALAR"
        },
        {
            "bufferView" : 3,
            "componentType" : 5126,
            "count" : 22145,
            "max" : [
                0.49778804183006287,
                0.4287012815475464,
                0.5
            ],
            "min" : [
                -0.5,
                -0.4287012815475464,
                -0.49893689155578613
            ],
            "type" : "VEC3"
        },
        {
            "bufferView" : 4,
            "componentType" : 5126,
            "count" : 22145,
            "type" : "VEC3"
        },
        {
            "bufferView" : 5,
            "componentType" : 5126,
            "count" : 22145,
            "type" : "VEC2"
        },
        {
            "bufferView" : 6,
            "componentType" : 5123,
            "count" : 22145,
            "normalized" : true,
            "type" : "VEC4"
        },
        {
            "bufferView" : 7,
            "componentType" : 5123,
            "count" : 129228,
            "type" : "SCALAR"
        },
        {
            "bufferView" : 9,
            "componentType" : 5126,
            "count" : 3366,
            "max" : [
                0.4951062500476837,
                0.03168204426765442,
                0.48786115646362305
            ],
            "min" : [
                -0.49350491166114807,
                -0.03168204426765442,
                -0.5
            ],
            "type" : "VEC3"
        },
        {
            "bufferView" : 10,
            "componentType" : 5126,
            "count" : 3366,
            "type" : "VEC3"
        },
        {
            "bufferView" : 11,
            "componentType" : 5123,
            "count" : 20184,
            "type" : "SCALAR"
        },
        {
            "bufferView" : 12,
            "componentType" : 5126,
            "count" : 7930,
            "max" : [
                0.4999999403953552,
                0.14792415499687195,
                0.5
            ],
            "min" : [
                -0.4995748698711395,
                -0.14792415499687195,
                -0.49944519996643066
            ],
            "type" : "VEC3"
        },
        {
            "bufferView" : 13,
            "componentType" : 5126,
            "count" : 7930,
            "type" : "VEC3"
        },
        {
            "bufferView" : 14,
            "componentType" : 5123,
            "count" : 47568,
            "type" : "SCALAR"
        },
        {
            "bufferView" : 15,
            "componentType" : 5126,
            "count" : 8550,
            "max" : [
                0.4999999701976776,
                0.14931811392307281,
                0.49973440170288086
            ],
            "min" : [
                -0.4999024569988251,
                -0.14931811392307281,
                -0.49936363101005554
            ],
            "type" : "VEC3"
        },
        {
            "bufferView" : 16,
            "componentType" : 5126,
            "count" : 8550,
            "type" : "VEC3"
        },
        {
            "bufferView" : 17,
            "componentType" : 5123,
            "count" : 51288,
            "type" : "SCALAR"
        },
        {
            "bufferView" : 18,
            "componentType" : 5126,
            "count" : 7608,
            "max" : [
                0.4999999701976776,
                0.07148699462413788,
                0.49820253252983093
            ],
            "min" : [
                -0.496299684047699,
                -0.07148699462413788,
                -0.5
            ],
            "type" : "VEC3"
        },
        {
            "bufferView" : 19,
            "componentType" : 5126,
            "count" : 7608,
            "type" : "VEC3"
        },
        {
            "bufferView" : 20,
            "componentType" : 5123,
            "count" : 45612,
            "type" : "SCALAR"
        },
        {
            "bufferView" : 21,
            "componentType" : 5126,
            "count" : 3787,
            "max" : [
                0.49613285064697266,
                0.06317649036645889,
                0.4997710883617401
            ],
            "min" : [
                -0.4967469871044159,
                -0.06317649036645889,
                -0.5
            ],
            "type" : "VEC3"
        },
        {
            "bufferView" : 22,
            "componentType" : 5126,
            "count" : 3787,
            "type" : "VEC3"
        },
        {
            "bufferView" : 23,
            "componentType" : 5123,
            "count" : 22710,
            "type" : "SCALAR"
        }
    ],
    "bufferViews" : [
        {
            "buffer" : 0,
            "byteLength" : 18456,
            "byteOffset" : 0
        },
        {
            "buffer" : 0,
            "byteLength" : 18456,
            "byteOffset" : 18456
        },
        {
            "buffer" : 0,
            "byteLength" : 18432,
            "byteOffset" : 36912
        },
        {
            "buffer" : 0,
            "byteLength" : 265740,
            "byteOffset" : 55344
        },
        {
            "buffer" : 0,
            "byteLength" : 265740,
            "byteOffset" : 321084
        },
        {
            "buffer" : 0,
            "byteLength" : 177160,
            "byteOffset" : 586824
        },
        {
            "buffer" : 0,
            "byteLength" : 177160,
            "byteOffset" : 763984
        },
        {
            "buffer" : 0,
            "byteLength" : 258456,
            "byteOffset" : 941144
        },
        {
            "buffer" : 0,
            "byteLength" : 29011,
            "byteOffset" : 1199600
        },
        {
            "buffer" : 0,
            "byteLength" : 40392,
            "byteOffset" : 1228612
        },
        {
            "buffer" : 0,
            "byteLength" : 40392,
            "byteOffset" : 1269004
        },
        {
            "buffer" : 0,
            "byteLength" : 40368,
            "byteOffset" : 1309396
        },
        {
            "buffer" : 0,
            "byteLength" : 95160,
            "byteOffset" : 1349764
        },
        {
            "buffer" : 0,
            "byteLength" : 95160,
            "byteOffset" : 1444924
        },
        {
            "buffer" : 0,
            "byteLength" : 95136,
            "byteOffset" : 1540084
        },
        {
            "buffer" : 0,
            "byteLength" : 102600,
            "byteOffset" : 1635220
        },
        {
            "buffer" : 0,
            "byteLength" : 102600,
            "byteOffset" : 1737820
        },
        {
            "buffer" : 0,
            "byteLength" : 102576,
            "byteOffset" : 1840420
        },
        {
            "buffer" : 0,
            "byteLength" : 91296,
            "byteOffset" : 1942996
        },
        {
            "buffer" : 0,
            "byteLength" : 91296,
            "byteOffset" : 2034292
        },
        {
            "buffer" : 0,
            "byteLength" : 91224,
            "byteOffset" : 2125588
        },
        {
            "buffer" : 0,
            "byteLength" : 45444,
            "byteOffset" : 2216812
        },
        {
            "buffer" : 0,
            "byteLength" : 45444,
            "byteOffset" : 2262256
        },
        {
            "buffer" : 0,
            "byteLength" : 45420,
            "byteOffset" : 2307700
        }
    ],
    "samplers" : [
        {
            "magFilter" : 9729,
            "minFilter" : 9987
        }
    ],
    "buffers" : [
        {
            "byteLength" : 2353120,
            "uri" : "data:application/octet-stream;base64,"
        }
    ]
}
